<svg width="21" height="32" viewBox="0 0 21 32" fill="none" xmlns="http://www.w3.org/2000/svg">
<path d="M10.5 2V5.1875" stroke="#F9B867" stroke-width="3" stroke-linecap="round" stroke-linejoin="round"/>
<path d="M10.5 26.4375V29.625" stroke="#F9B867" stroke-width="3" stroke-linecap="round" stroke-linejoin="round"/>
<path d="M17.9375 10.5C17.9375 9.80235 17.8001 9.11154 17.5331 8.46699C17.2661 7.82245 16.8748 7.23681 16.3815 6.7435C15.8882 6.25018 15.3025 5.85887 14.658 5.59189C14.0135 5.32491 13.3226 5.1875 12.625 5.1875H7.84375C6.43479 5.1875 5.08353 5.74721 4.08725 6.7435C3.09096 7.73978 2.53125 9.09104 2.53125 10.5C2.53125 11.909 3.09096 13.2602 4.08725 14.2565C5.08353 15.2528 6.43479 15.8125 7.84375 15.8125H13.6875C15.0965 15.8125 16.4477 16.3722 17.444 17.3685C18.4403 18.3648 19 19.716 19 21.125C19 22.534 18.4403 23.8852 17.444 24.8815C16.4477 25.8778 15.0965 26.4375 13.6875 26.4375H7.3125C5.90354 26.4375 4.55228 25.8778 3.556 24.8815C2.55971 23.8852 2 22.534 2 21.125" stroke="#F9B867" stroke-width="3" stroke-linecap="round" stroke-linejoin="round"/>
</svg>
