<svg width="627" height="220" viewBox="0 0 627 220" fill="none" xmlns="http://www.w3.org/2000/svg">
<path d="M0.437012 179H202.637V129.8H159.737L154.637 138.5H75.137L116.237 83.5998V158.9L109.037 162.2V215H169.637V4.9998H124.037L0.437012 179Z" fill="#231656"/>
<path d="M284.364 110C284.364 100.8 285.164 92.4998 286.764 85.0998C288.564 77.6998 290.964 71.3998 293.964 66.1998C296.964 60.9998 300.564 57.0998 304.764 54.4998C308.964 51.6998 313.564 50.2998 318.564 50.2998C323.764 50.2998 328.364 51.6998 332.364 54.4998C336.564 57.0998 340.164 60.9998 343.164 66.1998C346.364 71.3998 348.764 77.6998 350.364 85.0998C352.164 92.4998 353.064 100.8 353.064 110C353.064 119.2 352.164 127.5 350.364 134.9C348.764 142.3 346.364 148.6 343.164 153.8C340.164 159 336.564 163 332.364 165.8C328.364 168.4 323.764 169.7 318.564 169.7C313.564 169.7 308.964 168.4 304.764 165.8C300.564 163 296.964 159 293.964 153.8C290.964 148.6 288.564 142.3 286.764 134.9C285.164 127.5 284.364 119.2 284.364 110ZM228.564 110C228.564 133.4 232.364 153.2 239.964 169.4C247.564 185.6 258.064 198 271.464 206.6C285.064 215 300.764 219.2 318.564 219.2C337.164 219.2 353.164 215 366.564 206.6C380.164 198 390.564 185.6 397.764 169.4C405.164 153.2 408.864 133.4 408.864 110C408.864 86.5998 405.164 66.7998 397.764 50.5998C390.564 34.3998 380.164 22.0998 366.564 13.6998C353.164 5.09981 337.164 0.799805 318.564 0.799805C300.764 0.799805 285.064 5.09981 271.464 13.6998C258.064 22.0998 247.564 34.3998 239.964 50.5998C232.364 66.7998 228.564 86.5998 228.564 110Z" fill="#231656"/>
<path d="M424.363 179H626.563V129.8H583.663L578.563 138.5H499.063L540.163 83.5998V158.9L532.963 162.2V215H593.563V4.9998H547.963L424.363 179Z" fill="#231656"/>
</svg>
