<svg width="187" height="147" viewBox="0 0 187 147" fill="none" xmlns="http://www.w3.org/2000/svg">
<path d="M29.5624 -24.3969C46.7028 -25.9975 63.492 -31.3899 78.6054 -40.1487C85.964 -44.3892 94.1078 -47.0503 102.438 -47.9362C110.767 -48.822 119.071 -47.9099 126.737 -45.2672M108.049 7.80192C82.1814 22.7809 53.0385 31.1176 23.3783 32.0229M91.3542 -17.7922C98.0436 -21.6543 105.986 -22.7133 113.434 -20.7364C120.882 -18.7594 127.226 -13.9084 131.07 -7.25041C134.914 -0.592462 135.943 7.32701 133.931 14.7658C131.919 22.2046 127.031 28.5534 120.342 32.4155C94.3717 47.4783 65.3908 56.5999 35.5004 59.1189M103.426 103.538C119.466 97.9842 134.947 90.9175 149.656 82.435C169.574 70.935 184.146 52.0569 190.164 29.9539C196.182 7.85079 193.155 -15.6668 181.747 -35.4252C170.339 -55.1836 151.487 -69.5644 129.336 -75.4039C107.185 -81.2435 83.5501 -78.0635 63.6314 -66.5634C55.1136 -61.616 45.8097 -58.1699 36.1327 -56.378M64.8398 -6.00986C50.3888 -1.02851 35.3259 1.72142 20.2161 2.13679M152.179 -24.7218C153.55 -22.915 154.811 -21.0287 155.955 -19.0721C163.148 -6.61264 164.85 8.33694 160.686 22.4879C156.522 36.6389 146.833 48.8322 133.751 56.3853C125.502 61.1388 116.982 65.404 108.239 69.1567M82.251 79.0702C76.4569 81.3792 70.6029 83.5846 64.8702 85.5817" stroke="#32ACED" stroke-width="14" stroke-linecap="round" stroke-linejoin="round"/>
</svg>
