<svg width="173" height="148" viewBox="0 0 173 148" fill="none" xmlns="http://www.w3.org/2000/svg">
<path d="M161.522 71.3634L155.641 72.9393L149.122 48.6103L152.062 47.8224C155.182 46.9973 158.512 47.4819 161.327 49.1706C164.141 50.8592 166.211 53.6145 167.084 56.8351C167.301 57.6416 167.818 58.3321 168.522 58.7547C169.226 59.1772 170.06 59.2972 170.84 59.0882C171.62 58.8793 172.282 58.3584 172.681 57.6404C173.079 56.9223 173.182 56.0657 172.966 55.2592C171.669 50.4198 168.567 46.2768 164.341 43.7415C160.115 41.2062 155.112 40.4862 150.433 41.7401L147.492 42.5281L145.862 36.4458C145.646 35.6393 145.129 34.9487 144.425 34.5262C143.72 34.1036 142.887 33.9837 142.107 34.1926C141.327 34.4016 140.665 34.9224 140.266 35.6405C139.867 36.3586 139.765 37.2152 139.981 38.0217L141.611 44.104L137.2 45.2859C132.52 46.5397 128.547 49.6647 126.155 53.9732C123.763 58.2818 123.148 63.421 124.445 68.2603C125.741 73.0997 128.844 77.2427 133.07 79.778C137.296 82.3134 142.298 83.0333 146.978 81.7794L151.389 80.5975L157.908 104.926L152.027 106.502C148.907 107.327 145.577 106.843 142.762 105.154C139.948 103.466 137.878 100.71 137.004 97.4897C136.788 96.6831 136.271 95.9926 135.567 95.5701C134.863 95.1475 134.029 95.0275 133.249 95.2365C132.469 95.4455 131.807 95.9663 131.408 96.6844C131.01 97.4025 130.907 98.259 131.123 99.0656C132.42 103.905 135.522 108.048 139.748 110.583C143.974 113.119 148.977 113.838 153.656 112.585L159.538 111.009L161.167 117.091C161.384 117.898 161.901 118.588 162.605 119.011C163.309 119.433 164.143 119.553 164.923 119.344C165.703 119.135 166.365 118.614 166.764 117.896C167.162 117.178 167.265 116.322 167.049 115.515L165.419 109.433L171.3 107.857C175.98 106.603 179.953 103.478 182.345 99.1696C184.737 94.8611 185.352 89.7218 184.055 84.8825C182.758 80.0431 179.656 75.9001 175.43 73.3648C171.204 70.8295 166.201 70.1096 161.522 71.3634ZM149.759 74.5152L145.348 75.6971C142.229 76.5331 138.893 76.0531 136.076 74.3629C133.259 72.6727 131.191 69.9107 130.326 66.6844C129.462 63.4582 129.872 60.0321 131.467 57.1597C133.061 54.2873 135.71 52.204 138.829 51.3681L143.24 50.1862L149.759 74.5152ZM169.671 101.775L163.789 103.351L157.27 79.0216L163.152 77.4457C166.271 76.6098 169.607 77.0897 172.424 78.7799C175.241 80.4701 177.309 83.2322 178.174 86.4584C179.038 89.6846 178.628 93.1108 177.033 95.9831C175.439 98.8555 172.79 100.939 169.671 101.775Z" fill="#F54BC2"/>
<circle cx="151.444" cy="73.6237" r="68.8809" transform="rotate(-15 151.444 73.6237)" stroke="#F54BC3" stroke-width="15"/>
<line x1="46.1577" y1="41.5099" x2="116.316" y2="14.6748" stroke="#F54BC3" stroke-width="15" stroke-linecap="round"/>
<line x1="32.3463" y1="124.902" x2="77.6936" y2="112.752" stroke="#F54BC3" stroke-width="15" stroke-linecap="round"/>
<line x1="73.8269" y1="145.038" x2="110.281" y2="130.754" stroke="#F54BC3" stroke-width="15" stroke-linecap="round"/>
<line x1="49.3131" y1="68.5566" x2="64.7423" y2="64.4224" stroke="#F54BC3" stroke-width="15" stroke-linecap="round"/>
<line x1="26.3033" y1="74.7236" x2="27.9242" y2="74.2893" stroke="#F54BC3" stroke-width="15" stroke-linecap="round"/>
<line x1="35.3853" y1="99.4218" x2="80.7327" y2="87.2711" stroke="#F54BC3" stroke-width="15" stroke-linecap="round"/>
</svg>
