<svg width="48" height="48" viewBox="0 0 48 48" fill="none" xmlns="http://www.w3.org/2000/svg">
<g clip-path="url(#clip0_3_1849)">
<path d="M15.3154 3.49487L31.6548 3.49487L47.0212 29.9868H30.6451L15.3154 3.49487Z" fill="url(#paint0_linear_3_1849)"/>
<path d="M47.0212 29.9868L38.8332 44.1415L8.17383 44.1415L16.3803 29.9868L47.0212 29.9868Z" fill="url(#paint1_linear_3_1849)"/>
<path d="M8.17381 44.1415L0.0224609 29.9868L15.3154 3.49487L23.5218 17.6863L8.17381 44.1415Z" fill="url(#paint2_linear_3_1849)"/>
<path opacity="0.1" d="M8.17383 44.1415L23.4301 29.9868L16.3803 29.9868L8.17383 44.1415Z" fill="black"/>
<path opacity="0.1" d="M47.0211 29.9868L30.6633 29.9868L27.0649 23.7815L47.0211 29.9868Z" fill="black"/>
<path opacity="0.1" d="M15.3154 3.49487L20.0337 23.6897L23.5219 17.6863L15.3154 3.49487Z" fill="black"/>
</g>
<defs>
<linearGradient id="paint0_linear_3_1849" x1="-7.39163" y1="11.0138" x2="17.1736" y2="53.1251" gradientUnits="userSpaceOnUse">
<stop stop-color="#F6C338"/>
<stop offset="0.522782" stop-color="#FFD351"/>
<stop offset="1" stop-color="#F6C338"/>
</linearGradient>
<linearGradient id="paint1_linear_3_1849" x1="-99.2823" y1="-23.3213" x2="-104.518" y2="84.9209" gradientUnits="userSpaceOnUse">
<stop stop-color="#286EE6"/>
<stop offset="0.521046" stop-color="#4286FB"/>
<stop offset="1" stop-color="#286EE6"/>
</linearGradient>
<linearGradient id="paint2_linear_3_1849" x1="10.7717" y1="-14.3168" x2="-22.2619" y2="7.47416" gradientUnits="userSpaceOnUse">
<stop stop-color="#069B5A"/>
<stop offset="0.531031" stop-color="#11AA62"/>
<stop offset="1" stop-color="#069B5A"/>
</linearGradient>
<clipPath id="clip0_3_1849">
<rect width="46.9988" height="46.9988" fill="white" transform="translate(0.0224609 0.282104)"/>
</clipPath>
</defs>
</svg>
