<svg width="113" height="130" viewBox="0 0 113 130" fill="none" xmlns="http://www.w3.org/2000/svg">
<path d="M20.5 118.5C20.5 124.086 16.1846 128.5 11 128.5C5.81544 128.5 1.5 124.086 1.5 118.5C1.5 112.914 5.81544 108.5 11 108.5C16.1846 108.5 20.5 112.914 20.5 118.5Z" stroke="#FFD28D" stroke-width="3"/>
<path d="M93.4266 66.2447L94.6147 69.9012C95.2171 71.7553 96.9449 73.0106 98.8944 73.0106H102.739C104.192 73.0106 104.796 74.8701 103.621 75.7242L100.51 77.984C98.9332 79.1299 98.2732 81.1611 98.8757 83.0152L100.064 86.6717C100.513 88.0537 98.931 89.2029 97.7555 88.3488L94.645 86.0889C93.0678 84.943 90.9322 84.943 89.355 86.0889L86.2445 88.3488C85.069 89.2029 83.4872 88.0537 83.9363 86.6717L85.1243 83.0152C85.7268 81.1611 85.0668 79.1299 83.4896 77.984L80.3792 75.7242C79.2036 74.8701 79.8078 73.0106 81.2609 73.0106H85.1056C87.0551 73.0106 88.7829 71.7553 89.3853 69.9012L90.5734 66.2447C91.0224 64.8627 92.9776 64.8627 93.4266 66.2447Z" stroke="#FFB0B0" stroke-opacity="0.5" stroke-width="3"/>
<rect x="32.6355" y="12.4475" width="19.9398" height="19.9398" rx="5.5" transform="rotate(-30 32.6355 12.4475)" stroke="#ADABFF" stroke-opacity="0.5" stroke-width="3"/>
</svg>
