<svg width="23" height="23" viewBox="0 0 23 23" fill="none" xmlns="http://www.w3.org/2000/svg">
<path d="M15.766 2.69359C16.9948 2.69712 18.1723 3.16841 19.0411 4.00452C19.91 4.84064 20.3998 5.97365 20.4035 7.15609V16.0801C20.3998 17.2626 19.91 18.3956 19.0411 19.2317C18.1723 20.0678 16.9948 20.5391 15.766 20.5426H6.49213C5.26333 20.5391 4.08591 20.0678 3.21701 19.2317C2.34812 18.3956 1.85835 17.2626 1.85468 16.0801V7.15609C1.85835 5.97365 2.34812 4.84064 3.21701 4.00452C4.08591 3.16841 5.26333 2.69712 6.49213 2.69359H15.766ZM15.766 0.908875H6.49213C2.92138 0.908875 0 3.72005 0 7.15609V16.0801C0 19.5162 2.92138 22.3273 6.49213 22.3273H15.766C19.3368 22.3273 22.2582 19.5162 22.2582 16.0801V7.15609C22.2582 3.72005 19.3368 0.908875 15.766 0.908875Z" fill="#231656"/>
<path d="M17.1571 7.1565C16.8819 7.1565 16.613 7.07799 16.3842 6.93089C16.1554 6.7838 15.9771 6.57473 15.8718 6.33012C15.7665 6.08552 15.739 5.81636 15.7927 5.55668C15.8464 5.29701 15.9788 5.05848 16.1734 4.87127C16.368 4.68406 16.6158 4.55656 16.8857 4.50491C17.1555 4.45326 17.4352 4.47977 17.6894 4.58109C17.9436 4.68241 18.1609 4.85398 18.3138 5.07413C18.4666 5.29427 18.5482 5.55308 18.5482 5.81784C18.5486 5.99374 18.5129 6.16799 18.4431 6.33057C18.3733 6.49315 18.2709 6.64088 18.1416 6.76526C18.0124 6.88964 17.8589 6.98823 17.6899 7.05537C17.5209 7.12251 17.3399 7.15687 17.1571 7.1565ZM11.129 8.04861C11.8627 8.04861 12.58 8.25799 13.1901 8.65025C13.8002 9.04252 14.2757 9.60006 14.5565 10.2524C14.8372 10.9047 14.9107 11.6225 14.7676 12.315C14.6244 13.0075 14.2711 13.6436 13.7523 14.1428C13.2334 14.6421 12.5724 14.9821 11.8528 15.1198C11.1331 15.2576 10.3872 15.1869 9.70929 14.9167C9.03141 14.6465 8.452 14.1889 8.04436 13.6019C7.63672 13.0148 7.41914 12.3246 7.41914 11.6185C7.42019 10.672 7.81138 9.7646 8.50689 9.09533C9.2024 8.42607 10.1454 8.04963 11.129 8.04861ZM11.129 6.2639C10.0284 6.2639 8.95259 6.57794 8.0375 7.16632C7.12242 7.75469 6.4092 8.59097 5.98803 9.5694C5.56686 10.5478 5.45667 11.6245 5.67138 12.6632C5.88609 13.7018 6.41606 14.6559 7.19427 15.4048C7.97249 16.1537 8.96399 16.6636 10.0434 16.8703C11.1228 17.0769 12.2417 16.9708 13.2585 16.5655C14.2752 16.1603 15.1443 15.4739 15.7557 14.5934C16.3672 13.7128 16.6935 12.6776 16.6935 11.6185C16.6935 10.1984 16.1073 8.83642 15.0637 7.83223C14.0202 6.82805 12.6048 6.2639 11.129 6.2639Z" fill="#231656"/>
</svg>
