<svg width="70" height="74" viewBox="0 0 70 74" fill="none" xmlns="http://www.w3.org/2000/svg">
<path d="M64.8414 44.2456C59.2241 44.7702 53.7218 46.5374 48.7688 49.4079C46.3571 50.7976 43.6882 51.6697 40.9583 51.96C38.2285 52.2503 35.5072 51.9514 32.9946 51.0854" stroke="white" stroke-width="3" stroke-linecap="round" stroke-linejoin="round"/>
<path d="M39.1197 33.6925C47.597 28.7835 57.1479 26.0513 66.8683 25.7546" stroke="white" stroke-width="3" stroke-linecap="round" stroke-linejoin="round"/>
<path d="M44.5917 42.0804C42.3994 43.3461 39.7965 43.6932 37.3555 43.0453C34.9145 42.3974 32.8355 40.8076 31.5757 38.6256C30.3159 36.4436 29.9787 33.8482 30.638 31.4103C31.2974 28.9724 32.8995 26.8918 35.0917 25.626C43.6027 20.6896 53.1006 17.7002 62.8964 16.8746" stroke="white" stroke-width="3" stroke-linecap="round" stroke-linejoin="round"/>
<path d="M40.6352 2.31723C35.3783 4.13747 30.305 6.4534 25.4845 9.23334C18.9566 13.0022 14.1812 19.189 12.2089 26.4328C10.2365 33.6765 11.2288 41.3839 14.9673 47.8592C18.7058 54.3346 24.8845 59.0475 32.1439 60.9613C39.4034 62.8751 47.149 61.8329 53.6769 58.064C56.4684 56.4426 59.5175 55.3132 62.6889 54.726" stroke="white" stroke-width="3" stroke-linecap="round" stroke-linejoin="round"/>
<path d="M53.2803 38.2189C58.0163 36.5864 62.9528 35.6852 67.9046 35.5491" stroke="white" stroke-width="3" stroke-linecap="round" stroke-linejoin="round"/>
<path d="M24.6571 44.3515C24.2077 43.7594 23.7946 43.1412 23.4197 42.4999C21.0622 38.4167 20.5044 33.5173 21.8691 28.8796C23.2338 24.242 26.4091 20.246 30.6966 17.7706C33.4 16.2128 36.1921 14.8149 39.0573 13.5851" stroke="white" stroke-width="3" stroke-linecap="round" stroke-linejoin="round"/>
<path d="M47.5742 10.3362C49.4731 9.57953 51.3916 8.85678 53.2704 8.20227" stroke="white" stroke-width="3" stroke-linecap="round" stroke-linejoin="round"/>
</svg>
