<svg width="24" height="23" viewBox="0 0 24 23" fill="none" xmlns="http://www.w3.org/2000/svg">
<path d="M3.48714 16.1246C3.9575 16.1246 4.33924 16.5065 4.33924 16.977C4.33924 17.9237 5.10841 18.6931 6.05594 18.6931H7.22388C8.13393 18.6942 8.99057 19.0488 9.63476 19.6887L10.4539 20.5092C10.7857 20.84 11.2163 21.0172 11.673 21.0172C12.1388 21.0354 12.566 20.8388 12.8909 20.5104C13.2227 20.1785 13.7623 20.1751 14.0964 20.507C14.4292 20.84 14.4304 21.3798 14.0986 21.7139C13.4317 22.3845 12.5523 22.7197 11.673 22.7197C10.8004 22.7197 9.92674 22.389 9.26097 21.7264L8.43159 20.8968C8.11007 20.5774 7.67947 20.399 7.22161 20.3979H6.05594C4.16996 20.3979 2.63504 18.8636 2.63504 16.977C2.63504 16.5065 3.01678 16.1246 3.48714 16.1246ZM17.2906 2.31551C19.1766 2.31551 20.7115 3.84979 20.7115 5.73752V6.90585C20.7126 7.36159 20.8899 7.79232 21.2114 8.11623L22.0271 8.93224C22.6736 9.57436 23.0315 10.4324 23.0349 11.3473C23.0371 12.2622 22.6838 13.1225 22.0396 13.7703L21.2102 14.6C20.8944 14.9182 20.7126 15.358 20.7115 15.8092V16.9764C20.7115 18.863 19.1766 20.3984 17.2906 20.3984C16.8202 20.3984 16.4385 20.0166 16.4385 19.546C16.4385 19.0755 16.8202 18.6937 17.2906 18.6937C18.2381 18.6937 19.0073 17.9231 19.0073 16.9764V15.8081C19.0084 14.8966 19.3618 14.0397 20.0037 13.3964L20.8217 12.577C21.1546 12.2429 21.3318 11.811 21.3307 11.3519C21.3295 10.8938 21.1489 10.4631 20.824 10.1392L20.0048 9.31978C19.3618 8.67198 19.0084 7.81619 19.0073 6.90699V5.73752C19.0073 4.78968 18.2381 4.02027 17.2906 4.02027C16.8202 4.02027 16.4385 3.6384 16.4385 3.16789C16.4385 2.69738 16.8202 2.31551 17.2906 2.31551ZM14.5932 13.2941C15.1374 13.2941 15.5793 13.7362 15.5793 14.2806C15.5793 14.825 15.1374 15.2671 14.5932 15.2671C14.0478 15.2671 13.607 14.825 13.607 14.2806C13.607 13.7362 14.0478 13.2941 14.5932 13.2941ZM13.9909 7.83301C14.3238 7.50001 14.8623 7.50001 15.1952 7.83301C15.5281 8.16601 15.5281 8.70584 15.1952 9.03884L9.35663 14.8805C9.18962 15.0464 8.97148 15.1294 8.75335 15.1294C8.53521 15.1294 8.31707 15.0464 8.1512 14.8805C7.81831 14.5475 7.81831 14.0076 8.1512 13.6746L13.9909 7.83301ZM9.24961 0.999442C10.5334 -0.285943 12.6126 -0.342768 13.9532 0.87329C13.9986 0.907386 14.0441 0.941481 14.0895 0.986941C14.2372 1.14605 14.3281 1.35062 14.3281 1.57792C14.3281 2.05525 13.9418 2.4303 13.476 2.4303C13.2488 2.4303 13.0443 2.33938 12.8966 2.203C12.8852 2.19163 12.8852 2.19163 12.8739 2.18141C12.1922 1.53246 11.1129 1.54383 10.4539 2.203L9.63589 3.02128C8.9883 3.66909 8.1362 4.0214 7.22729 4.0214H6.05708C5.11409 4.0214 4.34152 4.79423 4.34152 5.73752V6.90812C4.34152 7.81846 3.98931 8.67084 3.34172 9.31751L2.5237 10.1369C1.85338 10.8177 1.85338 11.9087 2.5237 12.5793C2.85318 12.9089 2.85318 13.443 2.5237 13.7851C2.36464 13.9431 2.13742 14.034 1.92155 14.034C1.70569 14.034 1.48982 13.9544 1.3194 13.7851C-0.0212345 12.4554 -0.0212345 10.2835 1.30804 8.94246L2.13742 8.11282C2.45554 7.7946 2.63732 7.36272 2.63732 6.90812V5.73752C2.63732 3.85093 4.1711 2.31665 6.05708 2.31665H7.22729C7.68175 2.31665 8.11348 2.13595 8.43159 1.81659L9.24961 0.999442ZM8.74324 7.4674C9.28744 7.4674 9.7294 7.9095 9.7294 8.45388C9.7294 8.99827 9.28744 9.43923 8.74324 9.43923C8.19903 9.43923 7.75707 8.99827 7.75707 8.45388C7.75707 7.9095 8.19903 7.4674 8.74324 7.4674Z" fill="white"/>
</svg>
