<svg width="94" height="72" viewBox="0 0 94 72" fill="none" xmlns="http://www.w3.org/2000/svg">
<path d="M31.8521 34.6041L34.3206 35.2655L31.5845 45.4768L30.3502 45.146C29.0432 44.7913 27.9344 43.9162 27.2657 42.7118C26.597 41.5074 26.4229 40.0715 26.7813 38.7176C26.872 38.3791 26.829 38.0196 26.6617 37.7182C26.4943 37.4168 26.2164 37.1982 25.8891 37.1105C25.5617 37.0228 25.2118 37.0731 24.9162 37.2505C24.6206 37.4278 24.4035 37.7176 24.3128 38.0562C23.7686 40.0873 24.0269 42.2443 25.0308 44.0526C26.0348 45.861 27.7022 47.1726 29.6662 47.6988L30.9004 48.0296L30.2164 50.5824C30.1257 50.9209 30.1688 51.2804 30.3361 51.5818C30.5034 51.8832 30.7813 52.1018 31.1087 52.1895C31.436 52.2772 31.786 52.2268 32.0816 52.0495C32.3772 51.8721 32.5942 51.5823 32.6849 51.2438L33.3689 48.691L35.2203 49.1871C37.1843 49.7133 39.2841 49.4112 41.0577 48.3471C42.8314 47.2829 44.1335 45.5441 44.6778 43.5129C45.222 41.4818 44.9638 39.3248 43.9598 37.5164C42.9559 35.7081 41.2885 34.3965 39.3244 33.8702L37.4731 33.3742L40.2091 23.1629L42.6776 23.8244C43.9846 24.1791 45.0935 25.0542 45.7621 26.2586C46.4308 27.463 46.6049 28.8989 46.2465 30.2528C46.1558 30.5914 46.1989 30.9509 46.3662 31.2522C46.5335 31.5536 46.8114 31.7722 47.1388 31.8599C47.4661 31.9477 47.8161 31.8973 48.1117 31.7199C48.4073 31.5426 48.6243 31.2528 48.715 30.9143C49.2592 28.8831 49.001 26.7261 47.997 24.9178C46.9931 23.1094 45.3257 21.7978 43.3616 21.2716L40.8932 20.6101L41.5772 18.0573C41.6679 17.7188 41.6248 17.3593 41.4575 17.0579C41.2902 16.7565 41.0123 16.5379 40.685 16.4502C40.3576 16.3625 40.0076 16.4129 39.712 16.5902C39.4164 16.7676 39.1994 17.0574 39.1087 17.3959L38.4247 19.9487L35.9562 19.2873C33.9922 18.761 31.8924 19.0632 30.1187 20.1273C28.3451 21.1914 27.043 22.9303 26.4987 24.9614C25.9545 26.9926 26.2127 29.1496 27.2167 30.9579C28.2206 32.7663 29.888 34.0778 31.8521 34.6041ZM36.789 35.927L38.6404 36.423C39.9498 36.7739 41.0614 37.6483 41.7307 38.8538C42.4 40.0594 42.5721 41.4974 42.2093 42.8515C41.8465 44.2056 40.9784 45.3648 39.7959 46.0742C38.6135 46.7837 37.2137 46.9851 35.9043 46.6342L34.0529 46.1382L36.789 35.927ZM35.2722 21.8401L37.7407 22.5015L35.0046 32.7127L32.5361 32.0513C31.2267 31.7005 30.1151 30.8261 29.4458 29.6205C28.7765 28.4149 28.6044 26.9769 28.9672 25.6228C29.33 24.2688 30.1981 23.1095 31.3805 22.4001C32.563 21.6907 33.9628 21.4892 35.2722 21.8401Z" fill="white"/>
<circle cx="35.992" cy="35.898" r="27.5" transform="rotate(-165 35.992 35.898)" stroke="white" stroke-width="3"/>
<line x1="69.2884" y1="68.1136" x2="47.0721" y2="62.1608" stroke="white" stroke-width="3" stroke-linecap="round"/>
<line x1="92.0594" y1="41.0863" x2="69.8431" y2="35.1335" stroke="white" stroke-width="3" stroke-linecap="round"/>
<line x1="80.9353" y1="24.647" x2="58.7191" y2="18.6941" stroke="white" stroke-width="3" stroke-linecap="round"/>
<line x1="74.0672" y1="58.0061" x2="64.4079" y2="55.4179" stroke="white" stroke-width="3" stroke-linecap="round"/>
<line x1="83.7264" y1="60.5942" x2="79.8627" y2="59.559" stroke="white" stroke-width="3" stroke-linecap="round"/>
<line x1="85.6077" y1="49.7102" x2="63.3914" y2="43.7574" stroke="white" stroke-width="3" stroke-linecap="round"/>
</svg>
