<svg width="22" height="18" viewBox="0 0 22 18" fill="none" xmlns="http://www.w3.org/2000/svg">
<path d="M21.7294 2.06966C20.924 2.41936 20.0718 2.64976 19.1998 2.75356C20.1162 2.21734 20.8054 1.36545 21.138 0.357671C20.2716 0.863932 19.3253 1.21915 18.3396 1.40811C17.9246 0.973418 17.4254 0.627613 16.8724 0.391707C16.3194 0.155802 15.7242 0.0347248 15.123 0.0358352C12.6887 0.0358352 10.7187 1.97579 10.7187 4.36721C10.717 4.69984 10.7551 5.03149 10.8323 5.35506C9.08679 5.27329 7.37753 4.82832 5.81393 4.04861C4.25032 3.26891 2.8668 2.17164 1.75188 0.827015C1.36074 1.48594 1.15388 2.23775 1.15293 3.00388C1.15293 4.50578 1.93707 5.83335 3.12111 6.61112C2.4196 6.59448 1.73246 6.40894 1.11804 6.07025V6.12389C1.11804 8.22477 2.6389 9.97251 4.65182 10.3703C4.27329 10.4712 3.88323 10.5223 3.49148 10.5223C3.21351 10.5228 2.93618 10.4958 2.66351 10.4419C3.2231 12.1628 4.85177 13.4144 6.78103 13.4501C5.21336 14.6574 3.28868 15.31 1.30949 15.3052C0.958176 15.3046 0.60719 15.2837 0.258301 15.2426C2.27174 16.5273 4.6122 17.2069 7.00111 17.2004C15.1136 17.2004 19.5456 10.5983 19.5456 4.87231C19.5456 4.68457 19.5407 4.49684 19.5317 4.31357C20.3919 3.70211 21.1361 2.94224 21.7294 2.06966Z" fill="#231656"/>
</svg>
