<svg width="27" height="20" viewBox="0 0 27 20" fill="none" xmlns="http://www.w3.org/2000/svg">
<path d="M26.3119 4.31333C26.3119 2.08683 24.6309 0.295728 22.5537 0.295728C19.74 0.167581 16.8705 0.118103 13.938 0.118103H13.0239C10.0985 0.118103 7.22391 0.167581 4.41028 0.296223C2.33814 0.296223 0.65707 2.09722 0.65707 4.32372C0.5301 6.08463 0.476265 7.84604 0.479313 9.60745C0.474234 11.3689 0.531793 13.1319 0.651991 14.8966C0.651991 17.1231 2.33306 18.9291 4.4052 18.9291C7.36104 19.0627 10.3931 19.122 13.4759 19.1171C16.5638 19.127 19.5873 19.0643 22.5465 18.9291C24.6238 18.9291 26.3048 17.1231 26.3048 14.8966C26.4267 13.1303 26.4826 11.3689 26.4775 9.60251C26.489 7.8411 26.4338 6.07804 26.3119 4.31333ZM10.9924 14.4612V4.73884L18.3566 9.59756L10.9924 14.4612Z" fill="#231656"/>
</svg>
